<svg xmlns="http://www.w3.org/2000/svg" viewBox="0 0 44.07 44.07"><defs></defs><g id="Layer_2" data-name="Layer 2"><g id="Riempimento"><path  d="M32.41,28.05a4.51,4.51,0,1,0,4.51,4.5A4.51,4.51,0,0,0,32.41,28.05Zm0,7a2.51,2.51,0,1,1,2.51-2.51A2.5,2.5,0,0,1,32.41,35.06Z"/><path  d="M44,35.12a1,1,0,0,0-.47-.6l-1.79-1c0-.31,0-.62,0-.93a7.61,7.61,0,0,0-.07-1l1.58-.91a1,1,0,0,0,.36-1.37l-2.8-4.85A1,1,0,0,0,39.53,24l-1.61.93a10,10,0,0,0-1.7-1V22a1,1,0,0,0-1-1H30.05V11.81L18.24,0H0V39.86H23.25l.5.88a1,1,0,0,0,1.37.37l1.71-1a9.31,9.31,0,0,0,1.78,1v1.91a1,1,0,0,0,1,1h5.61a1,1,0,0,0,1-1V41.16A9.56,9.56,0,0,0,38,40.1l1.75,1a1,1,0,0,0,1.36-.37l2.81-4.86A1,1,0,0,0,44,35.12ZM18.83,3.41l7.8,7.81h-7.8ZM2,37.86V2H16.83V13.22H28.05v11a9.75,9.75,0,0,0-1.12.67L25.35,24a1,1,0,0,0-1.36.37l-2.81,4.85a1,1,0,0,0,.37,1.37l1.52.87A8.19,8.19,0,0,0,23,32.55c0,.32,0,.64.05,1l-1.74,1a1,1,0,0,0-.46.6,1,1,0,0,0,.1.76l1.14,2Zm37.9,1L38.43,38a1,1,0,0,0-1.15.11,7.35,7.35,0,0,1-2.4,1.4,1,1,0,0,0-.66.94v1.59H30.61V40.48a1,1,0,0,0-.67-.94,7.63,7.63,0,0,1-2.37-1.38,1,1,0,0,0-1.15-.11L25,38.87l-1.81-3.12,1.46-.84a1,1,0,0,0,.48-1A7.26,7.26,0,0,1,25,32.55a7.66,7.66,0,0,1,.14-1.41,1,1,0,0,0-.48-1.06l-1.24-.72,1.8-3.13,1.3.75a1,1,0,0,0,1.14-.1,7.35,7.35,0,0,1,2.28-1.31,1,1,0,0,0,.67-.94V23h3.61v1.59a1,1,0,0,0,.66.94,7.32,7.32,0,0,1,2.31,1.33,1,1,0,0,0,1.14.1l1.34-.77,1.8,3.13-1.3.75a1,1,0,0,0-.48,1.05,7.62,7.62,0,0,1,.14,1.39,7.2,7.2,0,0,1-.12,1.29,1,1,0,0,0,.49,1l1.5.87Z"/></g></g></svg>