<svg xmlns="http://www.w3.org/2000/svg" viewBox="0 0 44.16 38.54"><defs></defs><g id="Layer_2" data-name="Layer 2"><g id="Riempimento"><path  d="M2.41,34.32H17.87a1,1,0,0,0,1-1V22.08a1,1,0,0,0-1-1H2.41a1,1,0,0,0-1,1V33.32A1,1,0,0,0,2.41,34.32Zm1-11.24H16.87v9.24H3.41Z"/><path  d="M19.27,36.54H1a1,1,0,0,0,0,2H19.27a1,1,0,1,0,0-2Z"/><path  d="M15.05,13.24H29.11a1,1,0,0,0,1-1V1a1,1,0,0,0-1-1H15.05a1,1,0,0,0-1,1V12.24A1,1,0,0,0,15.05,13.24ZM16.05,2H28.11v9.24H16.05Z"/><path  d="M13.65,17.46H30.51a1,1,0,0,0,0-2H13.65a1,1,0,1,0,0,2Z"/><path  d="M25.3,22.08V33.32a1,1,0,0,0,1,1H41.76a1,1,0,0,0,1-1V22.08a1,1,0,0,0-1-1H26.3A1,1,0,0,0,25.3,22.08Zm2,1H40.76v9.24H27.3Z"/><path  d="M43.16,36.54H24.89a1,1,0,0,0,0,2H43.16a1,1,0,0,0,0-2Z"/></g></g></svg>