<svg xmlns="http://www.w3.org/2000/svg" viewBox="0 0 42.87 37.16"><defs></defs><g id="Layer_2" data-name="Layer 2"><g id="Riempimento"><path  d="M21.43,0,0,37.16H42.87Zm0,4,18,31.16H3.46Z"/><path  d="M21.44,26.09a1,1,0,0,0,1-1V14a1,1,0,1,0-2,0V25.09A1,1,0,0,0,21.44,26.09Z"/><path  d="M22.5,28.88a2.11,2.11,0,0,0-.23-.19L22,28.55l-.28-.08a1.5,1.5,0,0,0-1.79,1.47,1.36,1.36,0,0,0,0,.29,2.29,2.29,0,0,0,.08.28,2.15,2.15,0,0,0,.14.26,2.11,2.11,0,0,0,.19.23,1.5,1.5,0,0,0,1.06.44,1.43,1.43,0,0,0,.29,0,2.29,2.29,0,0,0,.28-.09,1.26,1.26,0,0,0,.26-.13c.08-.07.16-.12.23-.19a2.11,2.11,0,0,0,.19-.23,1.26,1.26,0,0,0,.13-.26,1.31,1.31,0,0,0,.09-.28,1.36,1.36,0,0,0,0-.29A1.5,1.5,0,0,0,22.5,28.88Z"/></g></g></svg>