<svg xmlns="http://www.w3.org/2000/svg" viewBox="0 0 40.34 40.34"><defs></defs><g id="Layer_2" data-name="Layer 2"><g id="Riempimento"><path  d="M39.4,30.06a3.9,3.9,0,0,1-3.87-3.88V16.47C35.53,7.39,28.64,0,20.17,0S4.81,7.39,4.81,16.46v9.72A3.9,3.9,0,0,1,.93,30.06.93.93,0,0,0,0,31V34.6a.93.93,0,0,0,.93.93H14.78a5.75,5.75,0,0,0,5.66,4.81h0a5.77,5.77,0,0,0,5.66-4.81H39.41a.93.93,0,0,0,.93-.93V31A.94.94,0,0,0,39.4,30.06Zm-19,8.41a3.87,3.87,0,0,1-3.76-2.94H24.2A3.89,3.89,0,0,1,20.44,38.47Zm18-4.81H1.87V31.85a5.76,5.76,0,0,0,4.8-5.67V16.46c0-8,6.06-14.59,13.5-14.59s13.49,6.55,13.49,14.6v9.71h0a5.75,5.75,0,0,0,4.8,5.66Z"/></g></g></svg>