<svg xmlns="http://www.w3.org/2000/svg" width="16" height="16" viewBox="0 0 16 16"><g transform="translate(-89 -233)"><rect width="16" height="16" transform="translate(89 233)" fill="none"/><g transform="translate(-667 -508.5)"><path id="strokeColor00" d="M762.036,753.571a6.035,6.035,0,1,1,6.036-6.036A6.042,6.042,0,0,1,762.036,753.571Zm0-11.134a5.1,5.1,0,1,0,5.1,5.1A5.1,5.1,0,0,0,762.036,742.437Z" transform="translate(0 0)" fill="#00b0c7"/><path id="strokeColor01" d="M772.171,758.138a.47.47,0,0,1-.332-.137l-5.551-5.551a.468.468,0,0,1,.663-.663l5.551,5.551a.468.468,0,0,1-.331.8Z" transform="translate(-0.639 -0.639)" fill="#00b0c7"/></g></g></svg>