<svg xmlns="http://www.w3.org/2000/svg" viewBox="0 0 43.78 43.78"><defs></defs><g id="Layer_2" data-name="Layer 2"><g id="Riempimento"><path  d="M9.36,7H6.18V1a1,1,0,0,0-2,0V7H1A1,1,0,0,0,0,8v5.57a1,1,0,0,0,1,1H4.18V42.78a1,1,0,0,0,2,0V14.53H9.36a1,1,0,0,0,1-1V8A1,1,0,0,0,9.36,7Zm-1,5.57H2V9H8.36Z"/><path  d="M42.78,33.42H39.6V1a1,1,0,0,0-2,0V33.42H34.42a1,1,0,0,0-1,1V40a1,1,0,0,0,1,1H37.6v1.79a1,1,0,0,0,2,0V41h3.18a1,1,0,0,0,1-1V34.42A1,1,0,0,0,42.78,33.42Zm-1,5.57H35.42V35.42h6.36Z"/><path  d="M26.07,16.71H22.89V1a1,1,0,0,0-2,0V16.71H17.71a1,1,0,0,0-1,1v5.57a1,1,0,0,0,1,1h3.18v18.5a1,1,0,0,0,2,0V24.28h3.18a1,1,0,0,0,1-1V17.71A1,1,0,0,0,26.07,16.71Zm-1,5.57H18.71V18.71h6.36Z"/></g></g></svg>