<svg xmlns="http://www.w3.org/2000/svg" viewBox="0 0 43.91 39.72"><defs></defs><g id="Layer_2" data-name="Layer 2"><g id="Riempimento"><path  d="M22,39.72a1,1,0,0,1-.64-.23C14.48,33.79,3,24.24.52,14.89A11.36,11.36,0,0,1,0,11.48s0-.14,0-.17H0s0-.05,0-.1A1.36,1.36,0,0,1,0,11,11.4,11.4,0,0,1,11.48,0,12.62,12.62,0,0,1,22,5.71,12.59,12.59,0,0,1,32.44,0,11.49,11.49,0,0,1,43.91,11.48v0a.76.76,0,0,1,0,.15,10.29,10.29,0,0,1-.13,1.54l0,.21A12.32,12.32,0,0,1,43.35,15c-1.9,6.4-8.69,14.41-20.74,24.47A1,1,0,0,1,22,39.72ZM2,11.32H2s0,.14,0,.16a9.48,9.48,0,0,0,.44,2.85C4.7,22.84,15.25,31.82,22,37.42,33.15,28,39.7,20.27,41.44,14.43a9.37,9.37,0,0,0,.33-1.34l1,.06-1-.23a9.63,9.63,0,0,0,.12-1.34v-.1h0A9.48,9.48,0,0,0,32.44,2a10.28,10.28,0,0,0-9.55,6.34A1,1,0,0,1,21,8.16,10.3,10.3,0,0,0,11.48,2,9.42,9.42,0,0,0,2,11.25Zm40.9.16h0Z"/></g></g></svg>