<svg xmlns="http://www.w3.org/2000/svg" viewBox="0 0 35.73 44.16"><defs></defs><g id="Layer_2" data-name="Layer 2"><g id="Riempimento"><path  d="M34.73,30.92H32.92V26.3a1,1,0,0,0-1-1H23.49a1,1,0,0,0-1,1v4.62H10.43V13.16a6.62,6.62,0,1,0-2,0V30.92H1a1,1,0,0,0-1,1V43.16a1,1,0,0,0,1,1H34.73a1,1,0,0,0,1-1V31.92A1,1,0,0,0,34.73,30.92ZM4.81,6.62a4.62,4.62,0,1,1,4.62,4.62A4.62,4.62,0,0,1,4.81,6.62ZM24.49,27.3h6.43v3.62H24.49Zm9.24,14.86H2V32.92H33.73Z"/><path  d="M6.62,38.54h5.62a1,1,0,1,0,0-2H6.62a1,1,0,1,0,0,2Z"/></g></g></svg>