<svg xmlns="http://www.w3.org/2000/svg" viewBox="0 0 43.48 43.48"><defs></defs><g id="Layer_2" data-name="Layer 2"><g id="Riempimento"><path  d="M21.74,0A21.74,21.74,0,1,0,43.48,21.74,21.76,21.76,0,0,0,21.74,0Zm0,41.48A19.74,19.74,0,1,1,41.48,21.74,19.76,19.76,0,0,1,21.74,41.48Z"/><polygon  points="22.74 16.61 18.98 16.61 18.98 18.61 20.74 18.61 20.74 31.81 18.98 31.81 18.98 33.81 21.74 33.81 22.74 33.81 24.51 33.81 24.51 31.81 22.74 31.81 22.74 16.61"/><path  d="M20.57,13a1.61,1.61,0,0,0,.54.23,1.36,1.36,0,0,0,.29,0,1.5,1.5,0,0,0,1.06-.44,1.52,1.52,0,0,0,.44-1.06,1.48,1.48,0,0,0-.44-1.06,1.55,1.55,0,0,0-2.12,0,1.48,1.48,0,0,0-.44,1.06,1.52,1.52,0,0,0,.44,1.06A1.3,1.3,0,0,0,20.57,13Z"/></g></g></svg>