<?xml version="1.0" encoding="UTF-8" standalone="no"?>
<svg xmlns:rdf="http://www.w3.org/1999/02/22-rdf-syntax-ns#" xmlns="http://www.w3.org/2000/svg" xml:space="preserve" height="54.668" viewBox="0 0 47.286999 54.668001" width="47.287" version="1.1" enable-background="new 0 0 77 77.005" y="0px" x="0px" xmlns:cc="http://creativecommons.org/ns#" xmlns:dc="http://purl.org/dc/elements/1.1/">
<rect height="77.005" width="77" y="-10.59" x="-12.676" fill="none"/>
<path fill="none" d="m34.013 18.764 6.051 6.05c-1.68-3.261-4.259-6.018-7.459-7.896 0.504 0.586 0.979 1.199 1.408 1.846z"/>
<path fill="none" d="m7.132 17.715-0.002 0.002 5.021 5.095 0.653-0.583-4.216-5.989c-0.545 0.424-1.071 0.884-1.56 1.374l0.104 0.101z"/>
<path fill="none" d="m18.551 45.037c8.848 0 16.047-7.199 16.047-16.047 0-8.846-7.199-16.043-16.047-16.043-3.088 0-6.008 0.906-8.572 2.542l4.508 6.407 0.401 0.572-0.521 0.463-1.729 1.545-0.557 0.498-0.522-0.53-5.477-5.557c-2.318 2.853-3.577 6.385-3.577 10.103 0.001 8.848 7.2 16.047 16.046 16.047zm14.473-17.459s-10.044 0.41-13.683 0.208l7.689-10.984c3.388 2.471 5.669 6.346 5.994 10.776zm-11.679-13.31c1.617 0.331 3.127 0.941 4.502 1.751l-7.313 11.162c-0.573-0.262 2.811-12.913 2.811-12.913z"/>
<path fill="none" d="m34.887 40.105c0.219-0.249 0.425-0.508 0.625-0.775l4.137 3.985c0.173-0.304 0.336-0.612 0.495-0.927l-4.101-3.832c1.02-1.622 1.677-3.493 1.852-5.503l4.037 3.896c0.075-0.435 0.154-0.869 0.199-1.314l-4.181-4.1-0.021 0.126c-0.016-0.73-0.102-1.442-0.24-2.134l0.16 0.035 4.367 4.367c0-0.083 0.012-0.163 0.012-0.247 0-1.795-0.261-3.542-0.732-5.215l-5.368-5.369c0.622 1.853 0.976 3.832 0.976 5.893 0 10.231-8.321 18.553-18.553 18.553-2.122 0-4.156-0.375-6.059-1.037l6.124 6.122c1.354 0.3 2.755 0.473 4.19 0.473 6.8 0 12.783-3.518 16.256-8.823l-4.175-4.174z"/>
<path fill="none" d="m5.169 41.805c2.051 4.465 5.722 7.95 10.211 9.807l-7.39-7.387c-1.021-0.71-1.965-1.524-2.821-2.42z"/>
<path id="bgColor00" d="m16.08 8.008-0.869-4.238c-4.106 2.193-7.689 5.169-10.576 8.466l1.089 1.087c2.993-2.577 6.474-4.385 10.356-5.315zm6.256-0.729c2.227 0 4.383 0.288 6.439 0.812l2.521-8.054c-0.485-0.02-0.974-0.037-1.463-0.037-4.463 0-8.658 1.014-12.458 2.708l0.996 4.86c1.283-0.187 2.605-0.289 3.965-0.289zm17.599 6.922 7.352-8.756c-3.962-2.743-8.598-4.573-13.607-5.204l-2.668 8.534c3.345 1.196 6.376 3.052 8.923 5.426zm-11.035-0.596c-2.959-1.996-6.52-3.163-10.35-3.163-4.12 0-8.023 1.322-11.284 3.822l0.845 1.104-0.017 0.012-0.358-0.472c-0.641 0.492-1.254 1.031-1.822 1.604l-0.566-0.557c-3.449 3.496-5.348 8.125-5.348 13.035 0 3.197 0.814 6.209 2.242 8.837 1.625 8.105 7.804 14.331 15.582 16.229l0.11 0.11 0.069-0.069c1.551 0.361 3.154 0.571 4.803 0.571 11.574 0 20.99-9.415 20.99-20.987 0.001-9.227-6.109-17.413-14.896-20.076zm-20.311 2.634 4.216 5.989-0.653 0.583-5.021-5.095 0.002-0.002-0.103-0.102c0.487-0.489 1.014-0.949 1.559-1.373zm-2.506 2.649 5.477 5.557 0.522 0.53 0.557-0.498 1.729-1.545 0.521-0.463-0.401-0.572-4.508-6.407c2.564-1.636 5.484-2.542 8.572-2.542 8.848 0 16.047 7.197 16.047 16.043 0 8.848-7.199 16.047-16.047 16.047-8.846 0-16.045-7.199-16.045-16.047-0.001-3.718 1.257-7.25 3.576-10.103zm-0.914 22.917c0.856 0.896 1.8 1.71 2.821 2.42l7.39 7.387c-4.49-1.857-8.16-5.342-10.211-9.807zm37.059-8.124c0 0.084-0.012 0.164-0.012 0.247l-4.367-4.367-0.16-0.035c0.139 0.692 0.225 1.404 0.24 2.134l0.021-0.126 4.181 4.1c-0.045 0.445-0.124 0.879-0.199 1.314l-4.037-3.896c-0.175 2.01-0.832 3.881-1.852 5.503l4.101 3.832c-0.159 0.314-0.322 0.623-0.495 0.927l-4.137-3.985c-0.2 0.268-0.406 0.526-0.625 0.775l4.176 4.173c-3.473 5.306-9.456 8.823-16.256 8.823-1.436 0-2.836-0.173-4.19-0.473l-6.124-6.122c1.902 0.661 3.937 1.037 6.059 1.037 10.231 0 18.553-8.321 18.553-18.553 0-2.061-0.354-4.041-0.976-5.893l5.368 5.369c0.471 1.674 0.731 3.421 0.731 5.216zm-8.215-14.917c-0.43-0.647-0.904-1.259-1.408-1.847 3.2 1.879 5.779 4.636 7.459 7.896l-6.051-6.049zm-8.166-2.745c-1.375-0.81-2.885-1.42-4.502-1.751 0 0-3.385 12.651-2.812 12.913l7.314-11.162zm7.177 11.559c-0.325-4.43-2.606-8.305-5.993-10.776l-7.689 10.984c3.638 0.203 13.682-0.208 13.682-0.208z"/>
</svg>
