<svg xmlns="http://www.w3.org/2000/svg" viewBox="0 0 43.48 43.48"><defs></defs><g id="Layer_2" data-name="Layer 2"><g id="Riempimento"><path  d="M0,10.3H10.3V0H0ZM2,2H8.3V8.3H2Z"/><path  d="M16.59,0V10.3H43.48V0ZM41.48,8.3H18.59V2H41.48Z"/><path  d="M0,43.48H10.3V33.19H0Zm2-8.29H8.3v6.29H2Z"/><path  d="M16.59,43.48H43.48V33.19H16.59Zm2-8.29H41.48v6.29H18.59Z"/><path  d="M0,26.88H10.3V16.59H0Zm2-8.29H8.3v6.29H2Z"/><path  d="M16.59,26.88H43.48V16.59H16.59Zm2-8.29H41.48v6.29H18.59Z"/></g></g></svg>