<svg xmlns="http://www.w3.org/2000/svg" viewBox="0 0 44.16 41.35"><defs></defs><g id="Layer_2" data-name="Layer 2"><g id="Riempimento"><path  d="M5.62,27.3H38.54V5.62H5.62Zm2-19.68H36.54V25.3H7.62Z"/><path  d="M41.76,0H2.41A2.41,2.41,0,0,0,0,2.41V31.92a2.4,2.4,0,0,0,2.41,2.4H16.87v5h-6a1,1,0,1,0,0,2H33.32a1,1,0,0,0,0-2h-6v-5H41.76a2.4,2.4,0,0,0,2.4-2.4V2.41A2.41,2.41,0,0,0,41.76,0ZM25.3,39.35H18.87v-5H25.3Zm16.86-7.43a.4.4,0,0,1-.4.4H2.41a.4.4,0,0,1-.41-.4V2.41A.41.41,0,0,1,2.41,2H41.76a.4.4,0,0,1,.4.41Z"/></g></g></svg>