<svg xmlns="http://www.w3.org/2000/svg" viewBox="0 0 45.86 43.78"><defs></defs><g id="Layer_2" data-name="Layer 2"><g id="Riempimento"><path  d="M37.76,32.35a3.36,3.36,0,1,0,3.36,3.36A3.36,3.36,0,0,0,37.76,32.35Zm0,4.71a1.36,1.36,0,0,1,0-2.71,1.36,1.36,0,1,1,0,2.71Z"/><path  d="M45.36,36.74l-1-.59c0-.15,0-.3,0-.44a4.71,4.71,0,0,0,0-.53l.88-.51a1,1,0,0,0,.36-1.37L43.69,30a1,1,0,0,0-1.37-.37l-.9.52a7.74,7.74,0,0,0-.83-.48V28.64a1,1,0,0,0-1-1H35.81a1,1,0,0,0-1,1v1.07a8.13,8.13,0,0,0-.81.47l-.88-.51a1,1,0,0,0-1.37.37L29.87,33.3a1,1,0,0,0,.36,1.37l.84.48a5.4,5.4,0,0,0,0,.56c0,.15,0,.31,0,.46l-1,.57a1,1,0,0,0-.47.61,1,1,0,0,0,.1.76l1.89,3.26a1,1,0,0,0,1.36.37l1-.56a6.55,6.55,0,0,0,.88.52v1.08a1,1,0,0,0,1,1h3.78a1,1,0,0,0,1-1V41.7a6.84,6.84,0,0,0,.9-.53l1,.57a1,1,0,0,0,1.37-.37l1.88-3.26A1,1,0,0,0,45.36,36.74Zm-2.75,2.77-.7-.41a1,1,0,0,0-1.16.11,4.46,4.46,0,0,1-1.5.88,1,1,0,0,0-.66.94v.75H36.81V41a1,1,0,0,0-.66-.94,4.49,4.49,0,0,1-1.49-.87,1,1,0,0,0-1.15-.1l-.68.39L31.94,38l.7-.4a1,1,0,0,0,.48-1,4.35,4.35,0,0,1,0-1.71,1,1,0,0,0-.48-1.06l-.55-.32L33,31.9l.59.34a1,1,0,0,0,1.14-.1,4.71,4.71,0,0,1,1.44-.82,1,1,0,0,0,.66-.94v-.74h1.78v.74a1,1,0,0,0,.66.94,4.7,4.7,0,0,1,1.45.84,1,1,0,0,0,1.14.1l.62-.36.88,1.54-.59.34a1,1,0,0,0-.48,1,4.53,4.53,0,0,1,.09.88,5.78,5.78,0,0,1-.07.81,1,1,0,0,0,.48,1l.73.43Z"/><path  d="M17.07,10.54a6.27,6.27,0,1,0,6.27,6.27A6.27,6.27,0,0,0,17.07,10.54Zm0,10.54a4.27,4.27,0,1,1,4.27-4.27A4.27,4.27,0,0,1,17.07,21.08Z"/><path  d="M33.81,21.56a1,1,0,0,0,.1-.76,1,1,0,0,0-.46-.6l-3-1.72a13.76,13.76,0,0,0,.11-1.67A13.27,13.27,0,0,0,30.44,15l2.66-1.53a1,1,0,0,0,.36-1.37l-4.21-7.3a1,1,0,0,0-1.37-.36L25.17,6a13.84,13.84,0,0,0-3-1.74V1a1,1,0,0,0-1-1H12.71a1,1,0,0,0-1,1V4.21a13.61,13.61,0,0,0-3,1.71L6.07,4.39a1,1,0,0,0-1.37.36L.48,12.05a1,1,0,0,0,.37,1.37l2.57,1.49a13.61,13.61,0,0,0-.14,1.9,14.15,14.15,0,0,0,.11,1.71L.5,20.2a1,1,0,0,0-.47.6,1.05,1.05,0,0,0,.1.76l4.22,7.3a1,1,0,0,0,.61.47,1,1,0,0,0,.76-.1l2.85-1.65a13.93,13.93,0,0,0,3.14,1.83v3.21a1,1,0,0,0,1,1h8.43a1,1,0,0,0,1-1V29.41a13.19,13.19,0,0,0,3.18-1.86l2.91,1.68a1,1,0,0,0,1.37-.37ZM28.37,27l-2.65-1.53a1,1,0,0,0-1.15.11,11.7,11.7,0,0,1-3.76,2.2,1,1,0,0,0-.67.94v2.9H13.71v-2.9a1,1,0,0,0-.66-.94,11.58,11.58,0,0,1-3.73-2.17,1,1,0,0,0-1.15-.11L5.58,27,2.37,21.43,5,19.92a1,1,0,0,0,.48-1.05,11.28,11.28,0,0,1-.19-2.06,11,11,0,0,1,.23-2.23A1,1,0,0,0,5,13.52l-2.3-1.33L5.93,6.62,8.32,8a1,1,0,0,0,1.14-.1,11.52,11.52,0,0,1,3.59-2.06,1,1,0,0,0,.66-.94V2h6.43V4.9a1,1,0,0,0,.67.94,11.72,11.72,0,0,1,3.62,2.08,1,1,0,0,0,1.15.1L28,6.62l3.21,5.57-2.39,1.38a1,1,0,0,0-.48,1,11.22,11.22,0,0,1,.22,2.19,11.75,11.75,0,0,1-.18,2,1,1,0,0,0,.48,1l2.7,1.56Z"/></g></g></svg>